<?xml version="1.0" encoding="utf-8" ?>
<svg xmlns="http://www.w3.org/2000/svg" xmlns:xlink="http://www.w3.org/1999/xlink" width="2043" height="2043">
	<path d="M527 0L1515.18 0C1515.53 0.0508716 1515.88 0.105797 1516.23 0.152615C1530.77 2.09588 1546.33 1.13878 1561.03 1.63288Q1594.44 3.07561 1627.71 6.52064C1754.86 20.1372 1865.28 72.7416 1944.64 174.975C2033.43 289.368 2038.72 407.391 2042.05 546.025L2042.04 638.437L2041.99 1214.11L2041.99 1400.84L2041.97 1460.2C2041.96 1470.03 2041.41 1480.17 2042.08 1489.95C2040.96 1535.78 2040.64 1581.37 2035.76 1627.03C2024.04 1736.72 1982.92 1837.88 1901.98 1914.83C1780.11 2030.69 1644.5 2040.76 1484.39 2042L1427.22 2042.03C1384.93 2041.36 1342.52 2042 1300.22 2042L1050.47 2041.99L555.998 2042.04C418.175 2039.82 295.507 2034.73 180.462 1948.76C75.0136 1869.96 20.7388 1757.63 6.63451 1628.52C4.25336 1606.73 2.43871 1584.63 1.77214 1562.71C1.31762 1547.76 2.42201 1531.48 0.160272 1516.75C0.111128 1516.43 0.053424 1516.11 0 1515.79L0 527.027C2.33084 515.468 1.22654 501.464 1.4919 489.634Q2.07954 466.542 3.93244 443.516C11.2316 346.031 36.2233 255.234 96.3518 176.647C176.152 72.3488 288.185 20.0018 416.919 6.30903Q453.349 2.65117 489.937 1.28273C501.786 0.849244 514.27 1.81861 525.998 0.155386C526.333 0.107947 526.666 0.0517954 527 0ZM711.424 1326.03C704.392 1333.43 698.035 1340.15 688.84 1344.87C672.734 1353.14 652.203 1355.43 634.626 1359.06C560.264 1374.39 471.117 1385.06 427.37 1455.75C410.408 1483.15 402.684 1514.55 403.594 1546.65C404.842 1590.69 422.111 1630.88 454.478 1660.98C464.217 1670.03 475.158 1677.19 486.939 1683.32C520.478 1700.75 548.684 1701.82 585.843 1700.29C598.741 1699.77 611.605 1697.5 624.292 1695.24C672.053 1686.75 717.224 1670.34 750.689 1633.66Q752.865 1631.24 754.955 1628.74Q757.046 1626.25 759.049 1623.69Q761.053 1621.12 762.966 1618.49Q764.88 1615.85 766.701 1613.16Q768.522 1610.46 770.249 1607.7Q771.976 1604.94 773.607 1602.12Q775.238 1599.31 776.77 1596.44Q778.303 1593.57 779.735 1590.64Q781.167 1587.72 782.497 1584.75Q783.828 1581.78 785.055 1578.76Q786.282 1575.75 787.404 1572.69Q788.526 1569.64 789.542 1566.55Q790.558 1563.45 791.466 1560.33Q792.375 1557.2 793.174 1554.05Q793.974 1550.89 794.665 1547.71Q795.355 1544.53 795.935 1541.33C803.454 1501.13 802.082 1460.42 802.081 1419.74L802.054 1284.15L802.036 811.763C802.098 796.896 802.145 783.842 813.303 772.538C820.649 765.095 829.409 762.008 839.322 759.445C869.218 751.716 900.452 747.209 930.706 740.834L1198.76 686.909L1322.54 661.867C1340.22 658.281 1368.88 649.972 1385.93 650.515C1393.86 650.767 1401.45 653.322 1407.01 659.177C1412.45 664.894 1414.77 674.101 1415.4 681.754C1417.28 705.008 1415.63 729.67 1415.58 753.044L1415.53 892.613L1415.55 1070.81C1415.54 1099.6 1417.04 1129.2 1415.43 1157.88C1414.68 1171.14 1408.15 1186.67 1398.18 1195.72C1382.5 1209.94 1363.36 1211.48 1343.71 1215.5C1283.08 1227.92 1202.11 1239.28 1153.44 1278.96C1139.68 1290.18 1128.48 1304.3 1119.61 1319.63C1108.16 1339.4 1099.14 1363.13 1097.69 1386.11C1094.75 1432.71 1107.09 1475.06 1138.41 1510.5C1163.71 1539.15 1202.89 1557.83 1240.99 1560.13C1302.07 1563.82 1384.27 1548.88 1430.88 1507.25C1470.18 1472.16 1491.55 1424.69 1494.15 1372.15C1495.25 1349.77 1494.42 1326.97 1494.42 1304.55L1494.4 1177.32L1494.37 794.441L1494.38 497.014L1494.42 404.038C1494.43 387.059 1495.37 369.438 1494.04 352.544C1493.11 340.759 1489.78 332.125 1481.51 323.455Q1480.84 322.751 1480.13 322.082Q1479.43 321.413 1478.69 320.781Q1477.95 320.148 1477.17 319.555Q1476.4 318.962 1475.6 318.408Q1474.8 317.855 1473.97 317.344Q1473.15 316.832 1472.29 316.363Q1471.44 315.895 1470.57 315.47Q1469.69 315.046 1468.79 314.666Q1467.9 314.287 1466.98 313.954Q1466.07 313.621 1465.14 313.336Q1464.21 313.05 1463.26 312.812Q1462.32 312.574 1461.37 312.385Q1460.41 312.196 1459.45 312.055Q1458.49 311.915 1457.52 311.824Q1456.55 311.733 1455.58 311.692Q1454.6 311.651 1453.63 311.659C1448.77 311.675 1443.8 311.755 1438.99 312.518C1425.45 315.389 1411.64 317.104 1398.03 319.631C1372.01 324.458 1346.09 330 1320.15 335.197L956.511 408.606L834.499 433.122C813.577 437.286 790.665 440.15 770.431 446.777C755.82 451.563 742.621 458.156 733.951 471.437C726.031 483.568 723.647 497.435 722.494 511.638C720.659 534.253 722.006 557.925 722.012 580.673L722.069 711.486L722.042 1082.71L722.122 1204.36C722.137 1225.02 722.774 1245.9 722.07 1266.53C721.378 1286.78 713.04 1305.92 711.424 1326.03Z"/>
	<path fill="#1C001F" fill-opacity="0.25490198" d="M555.998 2042.04L1050.47 2041.99L1300.22 2042C1342.52 2042 1384.93 2041.36 1427.22 2042.03L1427.39 2043L555.803 2043L555.998 2042.04Z"/>
	<path fill="#1C001F" fill-opacity="0.2" d="M2042.04 638.437L2043 638.438L2043 1490.19L2042.08 1489.95C2041.41 1480.17 2041.96 1470.03 2041.97 1460.2L2041.99 1400.84L2041.99 1214.11L2042.04 638.437Z"/>
	<path fill="#1C001F" fill-opacity="0.18039216" d="M2042.05 546.025L2043 545.827L2043 638.438L2042.04 638.437L2042.05 546.025Z"/>
	<path fill="#1C001F" fill-opacity="0.2" d="M1427.22 2042.03L1484.39 2042L1484.39 2043L1427.39 2043L1427.22 2042.03Z"/>
</svg>
