<?xml version="1.0" encoding="utf-8" ?>
<svg xmlns="http://www.w3.org/2000/svg" xmlns:xlink="http://www.w3.org/1999/xlink" width="1200" height="1201">
	<path d="M590.782 0L609.106 0L609.712 0.0784653C621.63 1.52954 633.921 1.20071 645.918 2.09796Q679.324 4.6734 712.244 10.9039Q718.827 12.1615 725.381 13.5659Q731.934 14.9702 738.455 16.5206Q744.976 18.071 751.46 19.7667Q757.944 21.4623 764.389 23.3024Q770.834 25.1425 777.236 27.1261Q783.638 29.1097 789.994 31.2358Q796.35 33.3619 802.657 35.6294Q808.964 37.897 815.219 40.3049Q821.474 42.7128 827.674 45.2598Q833.873 47.8068 840.014 50.4916Q846.155 53.1765 852.235 55.9978Q858.314 58.8192 864.329 61.7757Q870.344 64.7321 876.291 67.8222Q882.239 70.9123 888.115 74.1344Q893.992 77.3566 899.796 80.7092Q905.599 84.0619 911.326 87.5433Q917.053 91.0247 922.701 94.6332Q928.349 98.2417 933.914 101.975Q939.48 105.709 944.961 109.566Q950.442 113.424 955.835 117.402Q961.229 121.381 966.532 125.479Q971.835 129.577 977.045 133.793Q982.255 138.008 987.37 142.339Q992.485 146.67 997.502 151.114Q1002.52 155.558 1007.43 160.113Q1012.35 164.668 1017.16 169.332Q1021.98 173.995 1026.68 178.765Q1031.39 183.535 1035.99 188.409Q1040.59 193.283 1045.08 198.259Q1049.57 203.234 1053.95 208.309Q1058.33 213.384 1062.59 218.555Q1066.85 223.726 1071 228.991Q1073.91 232.66 1076.75 236.374Q1079.6 240.088 1082.39 243.847Q1085.18 247.605 1087.91 251.407Q1090.63 255.208 1093.3 259.052Q1095.97 262.896 1098.58 266.781Q1101.19 270.667 1103.74 274.593Q1106.29 278.518 1108.77 282.484Q1111.26 286.449 1113.68 290.453Q1116.1 294.456 1118.46 298.498Q1120.82 302.539 1123.12 306.617Q1125.41 310.694 1127.65 314.808Q1129.88 318.921 1132.04 323.069Q1134.21 327.217 1136.31 331.398Q1138.41 335.579 1140.45 339.793Q1142.49 344.007 1144.46 348.252Q1146.43 352.497 1148.33 356.772Q1150.23 361.048 1152.07 365.353Q1153.9 369.657 1155.67 373.991Q1157.44 378.324 1159.14 382.684Q1160.83 387.044 1162.47 391.43Q1164.1 395.817 1165.66 400.228Q1167.22 404.64 1168.71 409.075Q1170.2 413.51 1171.63 417.969Q1173.05 422.427 1174.4 426.907Q1175.75 431.387 1177.04 435.888Q1178.32 440.388 1179.53 444.908Q1180.74 449.429 1181.88 453.967Q1183.02 458.506 1184.09 463.062Q1185.16 467.618 1186.15 472.19Q1187.15 476.762 1188.08 481.349Q1189 485.937 1189.86 490.538Q1190.71 495.139 1191.49 499.753C1194.21 515.622 1196.52 531.895 1197.75 547.95C1198.5 557.57 1198.09 570.304 1200 579.511L1200 621.472C1199.97 621.652 1199.93 621.832 1199.9 622.013C1197.94 633.837 1198.34 646.495 1197.2 658.488Q1193.68 694.322 1185.97 729.494Q1184.49 736.166 1182.86 742.803Q1181.23 749.44 1179.46 756.038Q1177.68 762.636 1175.75 769.192Q1173.82 775.748 1171.74 782.258Q1169.66 788.768 1167.44 795.23Q1165.21 801.691 1162.84 808.1Q1160.47 814.51 1157.95 820.863Q1155.44 827.217 1152.78 833.512Q1150.12 839.806 1147.31 846.039Q1144.51 852.272 1141.57 858.439Q1138.62 864.606 1135.54 870.705Q1132.45 876.804 1129.23 882.831Q1126.01 888.858 1122.65 894.81Q1119.3 900.762 1115.8 906.637Q1112.31 912.511 1108.69 918.304Q1105.06 924.098 1101.31 929.807Q1097.55 935.517 1093.67 941.14Q1089.78 946.762 1085.77 952.295Q1081.76 957.828 1077.62 963.268Q1073.49 968.709 1069.23 974.053Q1064.97 979.398 1060.59 984.645Q1056.21 989.892 1051.71 995.037Q1047.22 1000.18 1042.6 1005.23Q1037.99 1010.27 1033.26 1015.2Q1028.54 1020.14 1023.7 1024.97Q1018.86 1029.79 1013.91 1034.51Q1008.97 1039.23 1003.91 1043.83Q998.862 1048.43 993.707 1052.92Q988.551 1057.4 983.295 1061.77Q978.038 1066.14 972.684 1070.38Q967.329 1074.63 961.88 1078.76Q956.43 1082.88 950.888 1086.88Q947.154 1089.59 943.378 1092.23Q939.602 1094.88 935.785 1097.47Q931.969 1100.06 928.113 1102.59Q924.257 1105.12 920.362 1107.59Q916.467 1110.06 912.535 1112.47Q908.603 1114.88 904.633 1117.22Q900.664 1119.57 896.659 1121.86Q892.654 1124.15 888.614 1126.37Q884.574 1128.59 880.5 1130.76Q876.426 1132.92 872.32 1135.02Q868.213 1137.11 864.074 1139.15Q859.935 1141.18 855.766 1143.15Q851.596 1145.12 847.396 1147.03Q843.197 1148.94 838.968 1150.78Q834.739 1152.62 830.482 1154.39Q826.226 1156.17 821.942 1157.88Q817.659 1159.58 813.349 1161.23Q809.04 1162.87 804.705 1164.44Q800.371 1166.02 796.013 1167.53Q791.655 1169.04 787.273 1170.48Q782.892 1171.92 778.49 1173.29Q774.087 1174.66 769.663 1175.97Q765.24 1177.27 760.797 1178.51Q756.353 1179.74 751.892 1180.91Q747.43 1182.08 742.951 1183.18Q738.471 1184.28 733.976 1185.3Q729.48 1186.33 724.969 1187.29Q720.458 1188.25 715.932 1189.14Q711.407 1190.03 706.868 1190.85Q702.33 1191.67 697.779 1192.42Q693.228 1193.17 688.667 1193.84Q684.105 1194.52 679.533 1195.13C659.91 1197.72 639.388 1200.1 619.571 1199.89C607.147 1200.7 593.955 1200.76 581.533 1199.83C566.803 1200.9 541.034 1197.63 525.782 1195.75Q521.109 1195.17 516.446 1194.52Q511.783 1193.87 507.131 1193.14Q502.479 1192.41 497.839 1191.61Q493.199 1190.81 488.572 1189.94Q483.945 1189.07 479.332 1188.12Q474.72 1187.18 470.123 1186.16Q465.525 1185.14 460.945 1184.05Q456.364 1182.96 451.802 1181.8Q447.239 1180.64 442.695 1179.41Q438.151 1178.17 433.627 1176.87Q429.103 1175.56 424.601 1174.18Q420.098 1172.81 415.618 1171.36Q411.137 1169.91 406.68 1168.4Q402.223 1166.88 397.79 1165.29Q393.358 1163.7 388.951 1162.05Q384.544 1160.39 380.163 1158.66Q375.783 1156.93 371.431 1155.14Q367.078 1153.34 362.754 1151.48Q358.431 1149.62 354.137 1147.68Q349.843 1145.75 345.58 1143.75Q341.317 1141.75 337.087 1139.69Q332.856 1137.62 328.658 1135.49Q324.461 1133.36 320.297 1131.16Q316.134 1128.96 312.005 1126.69Q307.877 1124.43 303.785 1122.1Q299.693 1119.77 295.638 1117.38Q291.583 1114.99 287.566 1112.53Q283.55 1110.07 279.572 1107.56Q275.595 1105.04 271.658 1102.45Q267.72 1099.87 263.824 1097.23Q259.928 1094.58 256.075 1091.88Q252.221 1089.18 248.41 1086.41Q242.88 1082.41 237.442 1078.28Q232.005 1074.15 226.662 1069.9Q221.32 1065.65 216.075 1061.28Q210.831 1056.91 205.687 1052.42Q200.543 1047.93 195.502 1043.33Q190.461 1038.73 185.526 1034.01Q180.592 1029.29 175.765 1024.46Q170.939 1019.64 166.223 1014.7Q161.508 1009.76 156.905 1004.72Q152.303 999.679 147.817 994.534Q143.33 989.388 138.962 984.143Q134.593 978.897 130.345 973.553Q126.097 968.209 121.971 962.771Q117.845 957.332 113.844 951.801Q109.843 946.27 105.969 940.649Q102.094 935.029 98.3482 929.322Q94.6024 923.615 90.9871 917.824Q87.3718 912.034 83.889 906.162Q80.4062 900.291 77.0576 894.342Q73.7091 888.394 70.4965 882.37Q67.2839 876.347 64.2089 870.253Q61.1339 864.158 58.1982 857.995Q55.2624 851.832 52.4674 845.604Q49.6724 839.376 47.0195 833.086Q44.3666 826.797 41.8573 820.448Q39.348 814.1 36.9835 807.696Q34.619 801.292 32.4006 794.836Q30.1822 788.381 28.1109 781.876Q26.0397 775.372 24.1167 768.822Q22.1938 762.272 20.42 755.68Q18.6463 749.088 17.0228 742.458Q15.3992 735.828 13.9267 729.162Q6.45232 695.066 2.98784 660.333C1.80589 648.302 2.06229 635.63 0.104111 623.774C0.071479 623.576 0.0347037 623.379 0 623.182L0 577.671C1.96696 568.104 1.51306 557.201 2.32024 547.408Q4.46923 523.098 8.59731 499.044Q9.38804 494.408 10.2517 489.786Q11.1153 485.163 12.0517 480.555Q12.9881 475.946 13.9969 471.353Q15.0057 466.76 16.0868 462.183Q17.1678 457.607 18.3209 453.047Q19.4739 448.488 20.6985 443.948Q21.9232 439.408 23.2193 434.887Q24.5153 430.366 25.8824 425.867Q27.2495 421.367 28.6873 416.89Q30.1251 412.412 31.6332 407.958Q33.1414 403.504 34.7195 399.074Q36.2976 394.644 37.9453 390.239Q39.593 385.835 41.3099 381.457Q43.0268 377.079 44.8124 372.728Q46.5981 368.378 48.452 364.056Q50.3059 359.734 52.2277 355.442Q54.1495 351.15 56.1386 346.888Q58.1278 342.627 60.1838 338.397Q62.2398 334.168 64.3622 329.971Q66.4846 325.775 68.6728 321.612Q70.8611 317.45 73.1146 313.322Q75.3681 309.194 77.6864 305.103Q80.0046 301.011 82.3871 296.956Q84.7695 292.902 87.2155 288.885Q89.6615 284.868 92.1704 280.891Q94.6794 276.913 97.2507 272.976Q99.822 269.038 102.455 265.141Q105.088 261.245 107.782 257.39Q110.476 253.535 113.231 249.723Q115.985 245.912 118.799 242.144Q121.613 238.376 124.486 234.653Q127.36 230.929 130.291 227.252Q134.446 222.013 138.717 216.868Q142.987 211.723 147.372 206.674Q151.756 201.625 156.252 196.676Q160.749 191.726 165.354 186.879Q169.959 182.031 174.672 177.287Q179.384 172.543 184.202 167.905Q189.019 163.267 193.938 158.738Q198.858 154.209 203.877 149.791Q208.896 145.373 214.013 141.068Q219.13 136.763 224.341 132.573Q229.553 128.383 234.856 124.311Q240.16 120.238 245.553 116.285Q250.947 112.332 256.427 108.5Q261.907 104.668 267.471 100.96Q273.036 97.2511 278.681 93.6676Q284.327 90.084 290.051 86.6273Q295.776 83.1707 301.576 79.8426Q307.376 76.5145 313.248 73.3166Q319.121 70.1187 325.064 67.0527Q331.007 63.9866 337.016 61.0539Q343.026 58.1213 349.1 55.3234Q355.173 52.5255 361.308 49.8638Q367.442 47.2022 373.635 44.678Q379.827 42.1539 386.074 39.7686Q392.322 37.3832 398.621 35.1379Q404.92 32.8925 411.267 30.7882Q417.614 28.684 424.007 26.7218Q430.4 24.7597 436.835 22.9407Q443.27 21.1217 449.744 19.4467Q456.218 17.7718 462.728 16.2417Q469.238 14.7115 475.78 13.3271Q482.322 11.9426 488.894 10.7044Q521.17 4.66455 553.906 2.10838C565.926 1.22673 578.199 1.47925 590.15 0.0787131L590.782 0ZM787.228 464.927C799.091 468.791 811.405 471.218 823.318 474.995Q863.623 488.154 902.361 505.385C912.961 510.013 923.71 515.639 933.797 521.306C944.346 527.234 956.053 536.016 967.842 538.817C971.642 539.72 975.991 539.586 979.887 539.627C991.125 539.746 999.872 539.752 1010.1 534.572Q1011.31 533.954 1012.49 533.278Q1013.67 532.601 1014.82 531.867Q1015.96 531.134 1017.07 530.344Q1018.18 529.555 1019.25 528.713Q1020.32 527.87 1021.34 526.976Q1022.37 526.081 1023.35 525.138Q1024.33 524.194 1025.26 523.203Q1026.19 522.213 1027.07 521.177Q1027.96 520.142 1028.79 519.065Q1029.62 517.987 1030.39 516.87Q1031.17 515.753 1031.89 514.599Q1032.61 513.446 1033.27 512.258Q1033.94 511.07 1034.54 509.851Q1035.14 508.632 1035.69 507.385Q1036.23 506.137 1036.71 504.865Q1037.19 503.593 1037.61 502.298C1042.93 486.008 1041.38 466.585 1033.48 451.373C1030.74 446.109 1027.24 440.859 1022.74 436.946C1014.71 429.953 1003.42 424.83 994.012 419.821Q979.39 411.848 964.406 404.576Q949.423 397.304 934.112 390.75Q918.801 384.195 903.197 378.373Q887.592 372.55 871.73 367.473Q854.531 362.036 837.173 357.129Q819.815 352.223 802.315 347.852Q784.815 343.481 767.188 339.649Q749.562 335.818 731.826 332.53Q714.09 329.242 696.262 326.5Q678.433 323.758 660.529 321.565Q642.625 319.372 624.661 317.73Q606.698 316.088 588.693 314.999C579.943 314.494 571.12 315.13 562.361 314.767C555.929 314.501 549.584 313.196 543.15 312.96C522.149 312.188 500.871 312.832 479.845 312.849C474.383 313.006 469.296 314.398 463.922 314.692C455.297 315.163 446.625 314.559 438.006 315.008C433.026 315.267 428.12 316.225 423.153 316.58C410.378 317.494 397.548 318.117 384.791 319.262C378.683 319.81 372.721 321.454 366.655 322.291C361.312 323.028 355.889 322.963 350.549 323.749Q326.452 327.123 302.576 331.814Q278.7 336.504 255.117 342.497C243.003 345.525 229.791 348.389 218.372 353.473C210.909 356.796 205.348 360.642 199.734 366.62C186.487 380.726 184.955 396.863 185.571 415.25C186.055 429.724 192.961 442.029 203.435 451.722C215.705 463.076 230.165 465.904 246.422 465.238C255.927 464.849 265.071 461.346 274.172 458.861C282.962 456.462 291.843 454.32 300.691 452.145C321.734 446.972 343.411 443.05 364.854 439.908C383.302 437.206 402.256 434.952 420.841 433.542C424.73 433.247 428.643 433.314 432.531 432.985C437.637 432.551 442.718 431.504 447.838 431.281C467.506 430.423 487.55 431.19 507.252 431.189C528.596 431.188 550.218 430.476 571.534 431.29C577.348 431.512 583.071 432.717 588.868 433.1Q623.723 435.141 658.348 439.628Q692.972 444.115 727.196 451.025C747.207 455.008 767.715 458.867 787.228 464.927ZM752.35 658.328C781.222 667.697 810.194 679.242 837.417 692.678C842.964 695.415 848.552 698.143 853.929 701.207C866.851 708.571 885.244 721.241 899.383 724.373C910.348 726.802 921.194 724.584 931.033 719.522C942.586 713.578 950.323 703.924 954.268 691.581C958.447 678.499 956.605 661.636 950.241 649.522Q949.161 647.417 947.866 645.436Q946.57 643.456 945.074 641.623Q943.578 639.79 941.898 638.124Q940.218 636.457 938.372 634.977C928.08 626.786 911.814 619.065 899.9 613.026C894.677 610.379 889.672 607.28 884.439 604.686C853.589 589.394 820.66 575.11 787.699 565.146C775.461 561.447 763.33 557.353 751.04 553.846Q715.546 544.035 679.495 536.526C644.796 529.457 609.407 525.448 574.155 522.577C569.8 522.222 565.484 521.428 561.127 521.095C554.377 520.578 547.573 521.073 540.816 520.718C535.163 520.421 529.581 519.261 523.925 519.018C505.191 518.213 483.281 518.352 464.521 519.127L463.456 519.414C453.341 522.098 442.829 520.247 432.516 521.37C404.932 524.373 377.38 527.178 350.033 532.011C329.93 535.564 310.323 540.492 290.53 545.381C277.888 548.504 264.419 550.728 252.635 556.44C244.837 560.221 236.943 566.175 232.473 573.734C225.513 585.504 223.578 602.968 227.25 616.08C230.52 627.759 237.342 637.738 248.099 643.6C259.05 649.569 274.927 651.767 286.956 648.19C290.941 647.004 294.714 645.145 298.709 643.989C328.708 635.301 365.799 628.056 396.964 624.09C402.297 623.411 407.641 623.234 412.97 622.643C422.327 621.604 431.684 620.181 441.07 619.429C447.434 618.919 453.857 619.39 460.231 619.054C465.94 618.754 471.564 617.526 477.271 617.256C492.434 616.541 508.313 616.759 523.496 617.228C529.375 617.409 535.148 618.613 541.004 619.007C553.696 619.861 566.471 620.274 579.153 621.419Q590.194 622.486 601.201 623.866Q612.207 625.245 623.17 626.937Q634.132 628.629 645.043 630.632Q655.953 632.635 666.802 634.947Q677.651 637.259 688.429 639.878Q699.208 642.497 709.908 645.422Q720.608 648.346 731.221 651.573Q741.833 654.801 752.35 658.328ZM710.335 825.003C740.627 834.649 770.056 849.348 798.269 863.891C809.866 869.868 820.422 879.012 833.249 882.327Q834.111 882.558 834.983 882.749Q835.855 882.94 836.735 883.091Q837.615 883.242 838.501 883.352Q839.387 883.462 840.277 883.531Q841.167 883.6 842.06 883.628Q842.952 883.656 843.844 883.643Q844.737 883.63 845.628 883.576Q846.519 883.522 847.407 883.427Q848.295 883.332 849.177 883.196Q850.059 883.06 850.934 882.883Q851.81 882.707 852.676 882.491Q853.542 882.274 854.397 882.018Q855.252 881.762 856.095 881.467Q856.937 881.171 857.765 880.837Q858.593 880.504 859.405 880.132Q860.216 879.761 861.01 879.352C870.19 874.634 876.358 867.135 879.321 857.264C882.442 846.864 880.778 831.402 875.442 821.874C868.032 808.641 843.139 796.945 829.532 790.124C818.71 784.7 807.913 778.926 796.895 773.928C791.647 771.546 786.138 769.747 780.804 767.569C756.314 757.571 731.768 748.78 706.243 741.775Q691.184 737.706 675.97 734.264Q660.756 730.823 645.412 728.013Q630.069 725.204 614.622 723.032Q599.175 720.861 583.652 719.33C579.153 718.931 574.614 719.079 570.109 718.737C564.718 718.327 559.355 717.339 553.951 717.135C536.281 716.468 518.359 717.124 500.662 717.099L471.233 717.053C465.63 717.048 459.667 716.674 454.114 717.395L453.07 717.642C446.707 719.093 440.277 718.938 433.812 719.471C426.895 720.041 419.902 720.841 412.996 721.557Q353.953 728.045 295.795 740.124C287.993 741.786 279.112 742.705 271.847 745.987C265.72 748.754 259.953 753.641 256.264 759.263C250.532 767.997 250.144 785.331 252.245 795.388C254.039 803.977 260.501 811.783 267.878 816.354C279.09 823.303 292.3 822.121 304.58 819.119C313.52 816.934 322.277 813.999 331.299 812.141C347.644 808.776 364.313 806.539 380.814 804.155Q422.181 797.817 463.946 795.154C476.61 794.363 489.718 795 502.434 794.995C519.167 794.99 536.158 794.42 552.863 795.093C563.382 795.517 574.267 797.317 584.74 798.511C598.483 800.078 612.513 801.324 626.146 803.753C646.335 807.35 666.75 812.28 686.517 817.722C694.372 819.885 702.461 823.36 710.335 825.003Z"/>
	<path d="M581.533 1199.83C593.955 1200.76 607.147 1200.7 619.571 1199.89L619.355 1200.53C613.534 1201.88 587.817 1201.7 581.818 1200.55L581.533 1199.83Z"/>
</svg>
