<?xml version="1.0" encoding="utf-8" ?>
<svg xmlns="http://www.w3.org/2000/svg" xmlns:xlink="http://www.w3.org/1999/xlink" width="1200" height="1200">
	<path d="M577.792 0L622.142 0C622.321 0.0318403 622.5 0.0656477 622.68 0.0955208C633.977 1.97441 646.201 1.55825 657.666 2.65387Q692.854 6.19982 727.43 13.6389Q734.136 15.1005 740.806 16.715Q747.476 18.3295 754.108 20.096Q760.74 21.8626 767.33 23.7802Q773.919 25.6979 780.464 27.7656Q787.008 29.8334 793.503 32.0502Q799.998 34.267 806.441 36.6317Q812.884 38.9964 819.271 41.5077Q825.658 44.0191 831.986 46.6757Q838.314 49.3324 844.58 52.133Q850.845 54.9336 857.045 57.8767Q863.245 60.8198 869.376 63.9038Q875.507 66.9878 881.566 70.2112Q887.625 73.4345 893.609 76.7955Q899.593 80.1565 905.498 83.6534Q911.404 87.1503 917.228 90.7813Q923.051 94.4122 928.791 98.1754Q934.53 101.938 940.182 105.832Q945.834 109.725 951.395 113.747Q956.957 117.768 962.425 121.916Q967.893 126.063 973.265 130.335Q978.636 134.606 983.909 138.999Q989.182 143.392 994.353 147.905Q999.524 152.417 1004.59 157.047Q1009.66 161.676 1014.62 166.42Q1019.58 171.164 1024.43 176.021Q1029.27 180.877 1034.01 185.843Q1038.75 190.808 1043.37 195.881Q1047.99 200.954 1052.5 206.131Q1057.01 211.308 1061.39 216.587Q1065.78 221.866 1070.04 227.243Q1074.31 232.621 1078.45 238.094Q1082.59 243.568 1086.6 249.135Q1091.65 256.122 1096.51 263.252Q1101.36 270.383 1106 277.65Q1110.64 284.918 1115.07 292.316Q1119.5 299.715 1123.72 307.238Q1127.93 314.762 1131.93 322.404Q1135.93 330.047 1139.7 337.801Q1143.47 345.556 1147.02 353.416Q1150.57 361.276 1153.89 369.236Q1157.21 377.196 1160.29 385.248Q1163.38 393.3 1166.24 401.438Q1169.09 409.576 1171.71 417.793Q1174.32 426.01 1176.7 434.3Q1179.08 442.589 1181.22 450.944Q1183.36 459.298 1185.25 467.711Q1187.15 476.124 1188.8 484.588Q1190.45 493.053 1191.86 501.561Q1195.86 525.477 1197.85 549.644C1198.51 558.164 1198.18 571.156 1200 579.086L1200 621.038C1199.97 621.214 1199.93 621.389 1199.91 621.566C1197.93 633.333 1198.35 645.967 1197.21 657.908Q1195.46 675.994 1192.62 693.942Q1189.78 711.889 1185.86 729.633Q1184.38 736.319 1182.74 742.969Q1181.1 749.62 1179.32 756.231Q1177.53 762.843 1175.59 769.412Q1173.66 775.981 1171.57 782.504Q1169.48 789.027 1167.25 795.501Q1165.01 801.975 1162.63 808.396Q1160.25 814.817 1157.72 821.182Q1155.19 827.548 1152.52 833.854Q1149.85 840.16 1147.03 846.403Q1144.22 852.646 1141.26 858.824Q1138.31 865.001 1135.21 871.11Q1132.11 877.219 1128.88 883.255Q1125.64 889.291 1122.27 895.252Q1118.9 901.213 1115.39 907.096Q1111.88 912.979 1108.24 918.78Q1104.6 924.581 1100.83 930.298Q1097.06 936.014 1093.16 941.643Q1089.26 947.272 1085.23 952.811Q1081.2 958.35 1077.05 963.795Q1072.89 969.241 1068.62 974.59Q1064.34 979.94 1059.94 985.19Q1055.55 990.441 1051.03 995.589Q1046.51 1000.74 1041.88 1005.78Q1037.25 1010.83 1032.5 1015.77Q1027.76 1020.7 1022.9 1025.53Q1018.04 1030.36 1013.08 1035.08Q1008.11 1039.79 1003.04 1044.39Q997.965 1048.99 992.789 1053.48Q987.613 1057.96 982.336 1062.33Q977.059 1066.7 971.684 1070.94Q966.309 1075.18 960.838 1079.3Q955.368 1083.43 949.805 1087.42Q942.853 1092.42 935.761 1097.23Q928.668 1102.03 921.441 1106.63Q914.214 1111.23 906.858 1115.62Q899.502 1120.01 892.024 1124.18Q884.545 1128.36 876.95 1132.32Q869.355 1136.28 861.65 1140.02Q853.945 1143.77 846.135 1147.29Q838.326 1150.81 830.419 1154.1Q822.512 1157.39 814.514 1160.46Q806.516 1163.53 798.433 1166.36Q790.351 1169.2 782.19 1171.81Q774.03 1174.41 765.798 1176.78Q757.566 1179.15 749.27 1181.28Q740.974 1183.41 732.62 1185.31Q724.266 1187.2 715.861 1188.85Q707.457 1190.51 699.008 1191.92C684.035 1194.41 668.863 1196.55 653.726 1197.72C644.356 1198.44 631.541 1198.01 622.638 1200L577.774 1200C568.622 1198.04 557.085 1198.5 547.588 1197.77C532.168 1196.58 516.678 1194.41 501.427 1191.87Q492.933 1190.46 484.482 1188.81Q476.032 1187.16 467.633 1185.27Q459.234 1183.37 450.893 1181.24Q442.552 1179.1 434.276 1176.73Q426 1174.35 417.796 1171.74Q409.592 1169.13 401.466 1166.28Q393.341 1163.43 385.301 1160.35Q377.262 1157.27 369.314 1153.95Q361.367 1150.64 353.518 1147.1Q345.669 1143.56 337.926 1139.8Q330.182 1136.03 322.551 1132.05Q314.919 1128.06 307.406 1123.86Q299.892 1119.65 292.503 1115.23Q285.114 1110.81 277.856 1106.18Q270.597 1101.55 263.475 1096.71Q256.353 1091.87 249.374 1086.83Q243.812 1082.82 238.344 1078.69Q232.875 1074.56 227.502 1070.31Q222.129 1066.05 216.854 1061.67Q211.58 1057.3 206.406 1052.8Q201.233 1048.3 196.164 1043.69Q191.095 1039.08 186.132 1034.35Q181.17 1029.62 176.316 1024.78Q171.463 1019.94 166.721 1014.99Q161.98 1010.04 157.352 1004.99Q152.725 999.93 148.214 994.769Q143.704 989.608 139.312 984.346Q134.92 979.084 130.65 973.723Q126.379 968.362 122.232 962.904Q118.085 957.447 114.064 951.897Q110.043 946.346 106.149 940.705Q102.255 935.065 98.4916 929.336Q94.7279 923.608 91.0958 917.795Q87.4638 911.983 83.9654 906.089Q80.467 900.194 77.1041 894.222Q73.7412 888.25 70.5155 882.202Q67.2898 876.154 64.203 870.035Q61.1162 863.915 58.1699 857.727Q55.2237 851.538 52.4194 845.284Q49.6152 839.03 46.9544 832.713Q44.2937 826.396 41.7779 820.021Q39.262 813.645 36.8924 807.214Q34.5227 800.782 32.3005 794.298Q30.0783 787.814 28.0047 781.281Q25.9311 774.748 24.0072 768.17Q22.0833 761.591 20.31 754.971Q18.5368 748.35 16.9151 741.69Q15.2935 735.031 13.8243 728.336Q6.49453 694.466 2.93468 659.996C1.74565 647.918 2.08079 635.213 0.103067 623.301C0.0707641 623.107 0.0343558 622.913 0 622.719L0 577.246C1.88854 568.032 1.45316 557.61 2.22548 548.188Q4.30494 523.781 8.43534 499.636Q9.89493 490.982 11.6083 482.375Q13.3217 473.768 15.2873 465.215Q17.253 456.662 19.4692 448.171Q21.6854 439.679 24.1503 431.257Q26.6153 422.834 29.3267 414.487Q32.0382 406.141 34.9938 397.878Q37.9495 389.614 41.1468 381.442Q44.3441 373.269 47.7802 365.194Q51.2164 357.118 54.8885 349.148Q58.5606 341.177 62.4654 333.318Q66.3702 325.458 70.5044 317.717Q74.6386 309.976 78.9986 302.36Q83.3585 294.743 87.9405 287.259Q92.5225 279.774 97.3225 272.427Q102.123 265.08 107.137 257.878Q112.15 250.675 117.374 243.623Q121.403 238.161 125.555 232.791Q129.707 227.421 133.979 222.147Q138.251 216.872 142.642 211.696Q147.033 206.52 151.539 201.444Q156.046 196.368 160.666 191.396Q165.287 186.424 170.019 181.557Q174.75 176.691 179.591 171.933Q184.432 167.175 189.379 162.528Q194.327 157.881 199.378 153.347Q204.429 148.813 209.582 144.394Q214.734 139.976 219.986 135.675Q225.237 131.375 230.584 127.194Q235.932 123.013 241.372 118.955Q246.813 114.896 252.344 110.962Q257.875 107.028 263.494 103.22Q269.113 99.4118 274.816 95.732Q280.52 92.0521 286.305 88.5023Q292.09 84.9526 297.955 81.5347Q303.819 78.1168 309.759 74.8326Q315.699 71.5483 321.712 68.3995Q327.725 65.2505 333.808 62.2386Q339.891 59.2267 346.04 56.3532Q352.19 53.4797 358.403 50.7463Q364.615 48.0128 370.889 45.4207Q377.162 42.8285 383.492 40.3791Q389.822 37.9297 396.206 35.6242Q402.59 33.3187 409.025 31.1584Q415.46 28.998 421.942 26.9839Q428.424 24.9698 434.949 23.103Q441.475 21.2362 448.042 19.5176Q454.608 17.799 461.212 16.2295Q467.815 14.66 474.453 13.2404Q507.97 6.14552 542.058 2.71126C553.632 1.58617 565.782 1.87527 577.221 0.0946917L577.792 0ZM621.826 913.996L622.958 913.755C629.48 912.398 636.022 912.277 642.596 911.4C652.335 910.1 662.514 908.155 672.075 905.853Q675.711 905.007 679.325 904.074Q682.94 903.142 686.531 902.123Q690.122 901.104 693.688 899.999Q697.254 898.895 700.792 897.705Q704.331 896.516 707.84 895.242Q711.349 893.968 714.826 892.61Q718.303 891.253 721.747 889.813Q725.191 888.372 728.6 886.85Q732.008 885.328 735.379 883.725Q738.75 882.121 742.082 880.438Q745.414 878.755 748.705 876.992Q751.995 875.229 755.243 873.388Q758.49 871.547 761.693 869.629Q764.895 867.711 768.051 865.717Q771.206 863.723 774.313 861.654Q777.42 859.584 780.477 857.442Q783.534 855.299 786.538 853.083Q789.543 850.868 792.494 848.582Q795.444 846.295 798.34 843.938Q801.235 841.582 804.073 839.157Q806.911 836.732 809.69 834.24Q812.469 831.747 815.188 829.189Q817.906 826.631 820.563 824.009Q823.22 821.386 825.813 818.701Q828.406 816.016 830.934 813.27Q833.463 810.523 835.924 807.717Q838.386 804.911 840.78 802.047Q843.174 799.183 845.499 796.262Q847.824 793.341 850.078 790.366Q852.332 787.39 854.515 784.362Q856.697 781.333 858.807 778.253Q860.916 775.173 862.951 772.044Q864.676 769.416 866.347 766.753Q868.019 764.091 869.637 761.396Q871.255 758.701 872.819 755.974Q874.383 753.247 875.892 750.489Q877.401 747.732 878.855 744.944Q880.309 742.157 881.706 739.341Q883.104 736.525 884.445 733.682Q885.786 730.839 887.07 727.969Q888.354 725.1 889.581 722.205Q890.807 719.311 891.975 716.392Q893.143 713.474 894.253 710.533Q895.363 707.591 896.413 704.629Q897.464 701.666 898.455 698.682Q899.446 695.699 900.378 692.697Q901.309 689.694 902.18 686.674Q903.051 683.653 903.862 680.616Q904.672 677.579 905.422 674.526Q906.172 671.473 906.86 668.406Q907.548 665.338 908.176 662.258Q908.802 659.177 909.368 656.085Q909.933 652.993 910.436 649.89Q910.94 646.786 911.381 643.674Q911.822 640.562 912.201 637.441Q912.58 634.32 912.896 631.193Q913.213 628.065 913.467 624.931Q913.721 621.798 913.912 618.66Q914.103 615.523 914.231 612.382Q914.359 609.241 914.425 606.098Q914.491 602.955 914.493 599.811Q914.496 596.667 914.436 593.525Q914.376 590.381 914.253 587.24Q914.13 584.099 913.944 580.961C913.027 564.869 910.161 548.189 906.974 532.409C896.704 481.564 870.493 430.878 836.261 391.959C831.636 386.7 826.388 381.825 821.43 376.878C816.978 372.437 812.597 367.729 807.848 363.606C796.339 353.617 783.911 344.917 771.227 336.52C726.34 306.801 671.869 289.463 618.195 286.121C605.753 285.346 592.592 285.651 580.123 286.161C564.309 288.368 548.243 289.674 532.645 293.19Q529.262 293.931 525.897 294.746Q522.531 295.56 519.184 296.449Q515.838 297.337 512.511 298.299Q509.185 299.261 505.88 300.296Q502.575 301.331 499.294 302.438Q496.013 303.545 492.757 304.724Q489.501 305.903 486.272 307.153Q483.043 308.403 479.842 309.724Q476.641 311.044 473.47 312.435Q470.299 313.826 467.159 315.286Q464.019 316.746 460.912 318.275Q457.805 319.804 454.732 321.4Q451.659 322.997 448.622 324.661Q445.585 326.324 442.586 328.055Q439.586 329.785 436.625 331.58Q433.664 333.376 430.744 335.236Q427.823 337.096 424.944 339.02Q422.065 340.944 419.228 342.93Q416.392 344.917 413.6 346.966Q410.808 349.014 408.062 351.123Q405.316 353.233 402.617 355.402Q399.918 357.571 397.267 359.799Q394.616 362.027 392.015 364.313Q389.413 366.598 386.863 368.941Q384.312 371.283 381.814 373.68Q379.316 376.078 376.871 378.53Q374.425 380.982 372.035 383.487Q369.644 385.992 367.309 388.549Q364.974 391.107 362.696 393.714Q360.418 396.322 358.197 398.979Q355.977 401.636 353.815 404.342Q351.654 407.047 349.552 409.799Q347.203 412.901 344.931 416.061Q342.659 419.22 340.467 422.435Q338.274 425.65 336.162 428.918Q334.049 432.186 332.018 435.505Q329.987 438.824 328.039 442.193Q326.091 445.562 324.227 448.977Q322.363 452.393 320.584 455.854Q318.805 459.315 317.112 462.819Q315.42 466.323 313.814 469.868Q312.209 473.412 310.692 476.996Q309.174 480.579 307.746 484.199Q306.318 487.819 304.98 491.473Q303.643 495.127 302.396 498.813Q301.148 502.499 299.993 506.215Q298.838 509.931 297.775 513.674Q296.712 517.418 295.742 521.186Q294.772 524.955 293.895 528.746Q293.019 532.538 292.236 536.349Q291.454 540.161 290.766 543.992Q290.079 547.822 289.486 551.668Q288.894 555.514 288.396 559.373Q287.899 563.232 287.498 567.103Q287.096 570.974 286.791 574.853Q286.485 578.732 286.276 582.618Q286.066 586.504 285.953 590.393Q285.84 594.283 285.823 598.174Q285.807 602.066 285.886 605.956Q285.966 609.847 286.142 613.734Q286.317 617.621 286.59 621.503Q286.862 625.385 287.23 629.259Q287.598 633.133 288.062 636.996Q288.526 640.86 289.085 644.711Q289.612 648.497 290.232 652.269Q290.851 656.041 291.563 659.797Q292.275 663.552 293.078 667.29Q293.882 671.027 294.777 674.743Q295.672 678.459 296.658 682.153Q297.644 685.846 298.72 689.514Q299.795 693.182 300.961 696.822Q302.126 700.463 303.381 704.074Q304.635 707.685 305.978 711.264Q307.32 714.843 308.75 718.388Q310.18 721.933 311.696 725.442Q313.212 728.951 314.814 732.422Q316.415 735.893 318.101 739.323Q319.788 742.754 321.557 746.142Q323.327 749.53 325.179 752.874Q327.032 756.218 328.965 759.515Q330.899 762.812 332.913 766.062Q334.927 769.311 337.02 772.509Q339.112 775.708 341.283 778.855Q343.454 782.001 345.701 785.093Q347.948 788.186 350.27 791.222Q352.592 794.258 354.988 797.237Q357.384 800.216 359.852 803.135Q362.32 806.054 364.859 808.911Q367.398 811.769 370.006 814.563Q372.614 817.358 375.29 820.088Q377.966 822.818 380.707 825.481Q383.449 828.144 386.256 830.74Q389.062 833.335 391.931 835.861Q394.8 838.387 397.73 840.842Q400.66 843.297 403.65 845.679Q406.639 848.062 409.686 850.37Q411.997 852.114 414.338 853.816Q416.68 855.517 419.053 857.176Q421.425 858.835 423.828 860.45Q426.23 862.065 428.661 863.636Q431.093 865.207 433.552 866.734Q436.012 868.261 438.499 869.742Q440.985 871.224 443.499 872.66Q446.012 874.096 448.552 875.486Q451.091 876.876 453.655 878.22Q456.219 879.563 458.807 880.86Q461.395 882.157 464.007 883.406Q466.618 884.655 469.252 885.857Q471.885 887.058 474.54 888.212Q477.195 889.365 479.871 890.47Q482.547 891.575 485.242 892.631Q487.937 893.687 490.651 894.693Q493.366 895.7 496.098 896.657Q498.83 897.615 501.579 898.522Q504.328 899.429 507.093 900.286Q509.858 901.143 512.638 901.949Q515.418 902.756 518.213 903.512Q521.007 904.268 523.815 904.972Q526.622 905.677 529.442 906.331Q532.262 906.984 535.094 907.586Q537.925 908.188 540.767 908.738Q543.609 909.289 546.461 909.787Q549.312 910.286 552.173 910.732Q555.033 911.179 557.901 911.573Q560.768 911.968 563.643 912.31Q566.518 912.652 569.398 912.941Q572.278 913.231 575.163 913.468Q578.048 913.705 580.937 913.89C594.342 914.779 608.363 914.031 621.826 913.996Z"/>
	<path d="M571.927 314.278C581.95 314.089 592.002 314.204 602.029 314.193C608.498 314.186 615.16 313.862 621.601 314.318C662.709 317.228 705.541 330.755 741.202 351.398C766.171 365.851 789.583 383.592 809.227 404.804C811.828 407.613 813.468 411.034 815.999 413.789C819.597 417.705 828.077 424.695 829.367 429.854C830.282 433.514 833.153 434.969 835.29 437.947C839.871 444.329 843.952 451.159 847.945 457.918C868.733 493.099 881.889 534.935 885.503 575.596C886.213 583.574 885.764 591.907 885.762 599.936C885.759 607.986 886.208 616.389 885.509 624.383C880.221 684.838 854.283 742.853 815.001 788.834C811.076 793.429 806.557 797.659 802.276 801.931C769.384 834.758 730.595 858.143 686.533 872.8C668.949 878.65 650.761 883.115 632.244 884.638L631.459 884.9C631.283 884.96 631.11 885.029 630.933 885.087C624.385 887.24 611.872 885.962 604.621 885.953C594.918 885.94 584.774 886.473 575.121 885.702C536.804 882.642 498.511 869.976 464.692 851.971Q462.051 850.539 459.441 849.052Q456.831 847.566 454.252 846.025Q451.674 844.484 449.127 842.891Q446.581 841.297 444.069 839.65Q441.556 838.004 439.079 836.305Q436.601 834.607 434.159 832.858Q431.717 831.108 429.312 829.308Q426.907 827.508 424.54 825.659Q422.173 823.81 419.845 821.911Q417.517 820.013 415.229 818.067Q412.941 816.121 410.694 814.127Q408.446 812.134 406.241 810.094Q404.036 808.055 401.873 805.97Q399.711 803.885 397.592 801.755Q395.474 799.625 393.4 797.452Q391.326 795.279 389.298 793.063Q387.27 790.848 385.288 788.59Q383.306 786.333 381.372 784.035Q379.437 781.737 377.551 779.399Q375.665 777.061 373.828 774.684Q371.99 772.308 370.203 769.893Q368.416 767.479 366.679 765.028Q364.942 762.578 363.256 760.091Q361.571 757.605 359.937 755.084Q358.304 752.563 356.723 750.009Q355.142 747.454 353.615 744.868Q352.088 742.281 350.615 739.663Q349.142 737.045 347.723 734.397Q346.305 731.75 344.941 729.073Q343.578 726.396 342.271 723.691Q340.964 720.987 339.713 718.256Q338.463 715.525 337.269 712.768C331.98 700.573 327.679 687.663 323.835 674.938C319.002 658.942 315.359 640.109 314.34 623.449C313.928 616.709 314.205 609.778 314.197 603.014C314.186 594.124 313.72 584.877 314.356 576.032C317.149 537.15 330.762 497.321 349.064 463.151C356.641 449.007 366.301 433.404 376.843 421.307C382.92 414.334 390.128 407.981 396.672 401.412C404.183 393.873 411.539 385.768 419.518 378.744C446.889 354.644 481.219 337.648 515.753 326.74C527.336 323.081 538.913 320.084 550.868 317.924C557.549 316.716 564.767 316.562 571.228 314.513C571.462 314.439 571.694 314.356 571.927 314.278ZM656.026 656.379L656.497 656.032C663.564 650.901 671.385 646.634 678.862 642.116L706.572 625.075C715.7 619.527 725.177 614.128 734.161 608.415C741.305 603.872 747.847 599.494 755.386 595.526C755.044 594.595 754.811 594.121 754.272 593.333C754.55 592.522 754.846 591.729 755.173 590.937C750.72 587.701 745.029 585.608 740.194 582.903L699.752 560.093L531.741 465.178C525.75 461.735 498.381 447.765 494.993 444.189C492.803 445.913 491.996 446.353 491.635 449.237C490.271 460.121 491.634 477.869 491.599 489.584L491.551 591.346L491.561 702.157L491.551 734.228C491.534 740.524 491.061 747.162 491.799 753.398C492.768 754.233 493.849 754.22 495.1 754.143C496.532 754.055 498.087 753.681 499.351 753.001C503.627 750.701 508.24 746.849 512.679 744.237C538.561 729.006 563.907 712.735 589.484 696.987L640.274 665.814C645.211 662.733 651.546 659.929 656.026 656.379Z"/>
</svg>
